# xmcd
#
# Track frame offsets: 
#        150
#        20575
#        45572
#        75554
#        103220
#        132383
#        153491
#        175694
#        190640
#        220807
#        256686
#        276142
#        305632
#        333047
#
# Disc length: 4740 seconds
#
# Revision: 2
# Processed by: cddbd v1.5.2PL0 Copyright (c) Steve Scherf et al.
# Submitted via: ExactAudioCopy v1.0b3
#
DISCID=b712820e
DTITLE=陳昇 - 滾石香港十年精選: 陳昇
DYEAR=2002
DGENRE=Pop
TTITLE0=把悲傷留給自己
TTITLE1=不再讓你孤單
TTITLE2=Summer
TTITLE3=北京一夜
TTITLE4=小雪
TTITLE5=風箏
TTITLE6=最後一次溫柔
TTITLE7=擁擠的樂園
TTITLE8=別讓我哭
TTITLE9=關於男人
TTITLE10=恨情歌
TTITLE11=流星小夜曲
TTITLE12=50米深藍
TTITLE13=思念人之屋
EXTD=
EXTT0=
EXTT1=
EXTT2=
EXTT3=
EXTT4=
EXTT5=
EXTT6=
EXTT7=
EXTT8=
EXTT9=
EXTT10=
EXTT11=
EXTT12=
EXTT13=
PLAYORDER=
